<mxfile host="www.draw.io" modified="2020-03-03T16:37:11.990Z" agent="Mozilla/5.0 (Windows NT 6.3; Win64; x64) AppleWebKit/537.36 (KHTML, like Gecko) Chrome/80.0.3987.122 Safari/537.36" etag="BvqlHdM-XZUmnnpWiMKn" version="12.7.9" type="github" pages="4">
  <diagram id="LIeod6OS_i5pe97JIU7N" name="current system">
    <mxGraphModel dx="862" dy="482" grid="0" gridSize="10" guides="1" tooltips="1" connect="1" arrows="1" fold="1" page="1" pageScale="1" pageWidth="850" pageHeight="1100" math="0" shadow="0">
      <root>
        <mxCell id="0" />
        <mxCell id="1" parent="0" />
        <mxCell id="BkhbmHTOlsuPoj_nIonJ-1" value="Enrollment" style="text;html=1;strokeColor=none;fillColor=none;align=center;verticalAlign=middle;whiteSpace=wrap;rounded=0;" vertex="1" parent="1">
          <mxGeometry x="60" y="10" width="40" height="20" as="geometry" />
        </mxCell>
        <mxCell id="BkhbmHTOlsuPoj_nIonJ-2" value="add insurance company" style="rounded=0;whiteSpace=wrap;html=1;" vertex="1" parent="1">
          <mxGeometry x="160" y="70" width="120" height="60" as="geometry" />
        </mxCell>
        <mxCell id="BkhbmHTOlsuPoj_nIonJ-3" value="create enrollment template excel file" style="rounded=0;whiteSpace=wrap;html=1;" vertex="1" parent="1">
          <mxGeometry x="360" y="70" width="120" height="60" as="geometry" />
        </mxCell>
        <mxCell id="BkhbmHTOlsuPoj_nIonJ-4" value="" style="shape=flexArrow;endArrow=classic;html=1;" edge="1" parent="1">
          <mxGeometry width="50" height="50" relative="1" as="geometry">
            <mxPoint x="290" y="100" as="sourcePoint" />
            <mxPoint x="350" y="100" as="targetPoint" />
          </mxGeometry>
        </mxCell>
        <mxCell id="BkhbmHTOlsuPoj_nIonJ-5" value="New isurance company client" style="text;html=1;strokeColor=none;fillColor=none;align=center;verticalAlign=middle;whiteSpace=wrap;rounded=0;" vertex="1" parent="1">
          <mxGeometry x="110" y="40" width="150" height="20" as="geometry" />
        </mxCell>
        <mxCell id="BkhbmHTOlsuPoj_nIonJ-6" value="broker sends email insurance enrollment form to customer" style="rounded=0;whiteSpace=wrap;html=1;" vertex="1" parent="1">
          <mxGeometry x="160" y="190" width="120" height="60" as="geometry" />
        </mxCell>
        <mxCell id="BkhbmHTOlsuPoj_nIonJ-7" value="customer enrollment" style="text;html=1;strokeColor=none;fillColor=none;align=center;verticalAlign=middle;whiteSpace=wrap;rounded=0;" vertex="1" parent="1">
          <mxGeometry x="110" y="160" width="150" height="20" as="geometry" />
        </mxCell>
        <mxCell id="BkhbmHTOlsuPoj_nIonJ-8" value="" style="shape=flexArrow;endArrow=classic;html=1;" edge="1" parent="1">
          <mxGeometry width="50" height="50" relative="1" as="geometry">
            <mxPoint x="290" y="219.5" as="sourcePoint" />
            <mxPoint x="350" y="219.5" as="targetPoint" />
          </mxGeometry>
        </mxCell>
        <mxCell id="BkhbmHTOlsuPoj_nIonJ-9" value="broker receive insurance form then file customer&#39;s insurance form and manually input data to customer master file" style="rounded=0;whiteSpace=wrap;html=1;" vertex="1" parent="1">
          <mxGeometry x="580" y="190" width="160" height="80" as="geometry" />
        </mxCell>
        <mxCell id="BkhbmHTOlsuPoj_nIonJ-10" value="" style="shape=flexArrow;endArrow=classic;html=1;" edge="1" parent="1">
          <mxGeometry width="50" height="50" relative="1" as="geometry">
            <mxPoint x="500" y="219.5" as="sourcePoint" />
            <mxPoint x="551" y="219.5" as="targetPoint" />
          </mxGeometry>
        </mxCell>
        <mxCell id="BkhbmHTOlsuPoj_nIonJ-11" value="customer fill up the insurance form then send back to to broker" style="rounded=0;whiteSpace=wrap;html=1;" vertex="1" parent="1">
          <mxGeometry x="370" y="200" width="120" height="60" as="geometry" />
        </mxCell>
        <mxCell id="BkhbmHTOlsuPoj_nIonJ-12" value="Reporting" style="text;html=1;strokeColor=none;fillColor=none;align=center;verticalAlign=middle;whiteSpace=wrap;rounded=0;" vertex="1" parent="1">
          <mxGeometry x="130" y="270" width="40" height="20" as="geometry" />
        </mxCell>
        <mxCell id="BkhbmHTOlsuPoj_nIonJ-13" value="employee/management&amp;nbsp; ask for report for monitoring or decision making" style="rounded=0;whiteSpace=wrap;html=1;" vertex="1" parent="1">
          <mxGeometry x="140" y="300" width="140" height="80" as="geometry" />
        </mxCell>
        <mxCell id="BkhbmHTOlsuPoj_nIonJ-14" value="" style="shape=flexArrow;endArrow=classic;html=1;" edge="1" parent="1">
          <mxGeometry width="50" height="50" relative="1" as="geometry">
            <mxPoint x="290" y="339.5" as="sourcePoint" />
            <mxPoint x="350" y="339.5" as="targetPoint" />
          </mxGeometry>
        </mxCell>
        <mxCell id="BkhbmHTOlsuPoj_nIonJ-15" value="employee assign to create report process the master file to produce the necessary report needed by the employee management&amp;nbsp;" style="rounded=0;whiteSpace=wrap;html=1;" vertex="1" parent="1">
          <mxGeometry x="360" y="300" width="160" height="80" as="geometry" />
        </mxCell>
      </root>
    </mxGraphModel>
  </diagram>
  <diagram id="Bf_KeNwyaSk28ncXu9ab" name="monitoring">
    <mxGraphModel dx="862" dy="482" grid="0" gridSize="10" guides="1" tooltips="1" connect="1" arrows="1" fold="1" page="1" pageScale="1" pageWidth="850" pageHeight="1100" math="0" shadow="0">
      <root>
        <mxCell id="1akus08vcjuI-_9o--NK-0" />
        <mxCell id="1akus08vcjuI-_9o--NK-1" parent="1akus08vcjuI-_9o--NK-0" />
        <mxCell id="1akus08vcjuI-_9o--NK-2" value="Membership Monitoring&lt;br&gt;" style="text;html=1;strokeColor=none;fillColor=none;align=center;verticalAlign=middle;whiteSpace=wrap;rounded=0;" vertex="1" parent="1akus08vcjuI-_9o--NK-1">
          <mxGeometry x="80" y="30" width="130" height="20" as="geometry" />
        </mxCell>
        <mxCell id="1akus08vcjuI-_9o--NK-3" value="checking due dates" style="rounded=1;whiteSpace=wrap;html=1;" vertex="1" parent="1akus08vcjuI-_9o--NK-1">
          <mxGeometry x="170" y="160" width="120" height="60" as="geometry" />
        </mxCell>
        <mxCell id="1akus08vcjuI-_9o--NK-4" value="assigned employee manually check or use excel formula to determine membership due dates" style="rounded=1;whiteSpace=wrap;html=1;" vertex="1" parent="1akus08vcjuI-_9o--NK-1">
          <mxGeometry x="400" y="160" width="170" height="60" as="geometry" />
        </mxCell>
        <mxCell id="1akus08vcjuI-_9o--NK-5" value="" style="shape=flexArrow;endArrow=classic;html=1;" edge="1" parent="1akus08vcjuI-_9o--NK-1">
          <mxGeometry width="50" height="50" relative="1" as="geometry">
            <mxPoint x="310" y="100" as="sourcePoint" />
            <mxPoint x="380" y="100" as="targetPoint" />
          </mxGeometry>
        </mxCell>
        <mxCell id="1akus08vcjuI-_9o--NK-6" value="checking duplicate data" style="rounded=1;whiteSpace=wrap;html=1;" vertex="1" parent="1akus08vcjuI-_9o--NK-1">
          <mxGeometry x="170" y="70" width="120" height="60" as="geometry" />
        </mxCell>
        <mxCell id="1akus08vcjuI-_9o--NK-7" value="" style="shape=flexArrow;endArrow=classic;html=1;" edge="1" parent="1akus08vcjuI-_9o--NK-1">
          <mxGeometry width="50" height="50" relative="1" as="geometry">
            <mxPoint x="310" y="189.5" as="sourcePoint" />
            <mxPoint x="380" y="189.5" as="targetPoint" />
          </mxGeometry>
        </mxCell>
        <mxCell id="1akus08vcjuI-_9o--NK-8" value="assigned employee manually check the master file for any duplicate data entries&amp;nbsp; or use some excel filtering" style="rounded=1;whiteSpace=wrap;html=1;" vertex="1" parent="1akus08vcjuI-_9o--NK-1">
          <mxGeometry x="400" y="70" width="170" height="60" as="geometry" />
        </mxCell>
      </root>
    </mxGraphModel>
  </diagram>
  <diagram id="oGY8bbjVvWLLYdHiGG61" name="Claim">
    <mxGraphModel dx="1014" dy="567" grid="0" gridSize="10" guides="1" tooltips="1" connect="1" arrows="1" fold="1" page="1" pageScale="1" pageWidth="850" pageHeight="1100" math="0" shadow="0">
      <root>
        <mxCell id="pKeI2L3LIv_6qHk-37yW-0" />
        <mxCell id="pKeI2L3LIv_6qHk-37yW-1" parent="pKeI2L3LIv_6qHk-37yW-0" />
        <mxCell id="pKeI2L3LIv_6qHk-37yW-16" style="edgeStyle=orthogonalEdgeStyle;rounded=0;orthogonalLoop=1;jettySize=auto;html=1;exitX=1;exitY=0.5;exitDx=0;exitDy=0;entryX=0;entryY=0.5;entryDx=0;entryDy=0;" edge="1" parent="pKeI2L3LIv_6qHk-37yW-1" source="pKeI2L3LIv_6qHk-37yW-2" target="pKeI2L3LIv_6qHk-37yW-7">
          <mxGeometry relative="1" as="geometry" />
        </mxCell>
        <mxCell id="pKeI2L3LIv_6qHk-37yW-2" value="client sends the document" style="rounded=1;whiteSpace=wrap;html=1;" vertex="1" parent="pKeI2L3LIv_6qHk-37yW-1">
          <mxGeometry x="190" y="127" width="120" height="60" as="geometry" />
        </mxCell>
        <mxCell id="pKeI2L3LIv_6qHk-37yW-3" value="process claim" style="text;html=1;strokeColor=none;fillColor=none;align=center;verticalAlign=middle;whiteSpace=wrap;rounded=0;" vertex="1" parent="pKeI2L3LIv_6qHk-37yW-1">
          <mxGeometry x="120" y="10" width="80" height="20" as="geometry" />
        </mxCell>
        <mxCell id="pKeI2L3LIv_6qHk-37yW-4" value="howden pickup&amp;nbsp; the document" style="rounded=1;whiteSpace=wrap;html=1;" vertex="1" parent="pKeI2L3LIv_6qHk-37yW-1">
          <mxGeometry x="621" y="50" width="120" height="60" as="geometry" />
        </mxCell>
        <mxCell id="pKeI2L3LIv_6qHk-37yW-15" style="edgeStyle=orthogonalEdgeStyle;rounded=0;orthogonalLoop=1;jettySize=auto;html=1;exitX=1;exitY=0.5;exitDx=0;exitDy=0;" edge="1" parent="pKeI2L3LIv_6qHk-37yW-1" source="pKeI2L3LIv_6qHk-37yW-5">
          <mxGeometry relative="1" as="geometry">
            <mxPoint x="620" y="80" as="targetPoint" />
          </mxGeometry>
        </mxCell>
        <mxCell id="pKeI2L3LIv_6qHk-37yW-5" value="howden receives&amp;nbsp; pickup request" style="rounded=1;whiteSpace=wrap;html=1;" vertex="1" parent="pKeI2L3LIv_6qHk-37yW-1">
          <mxGeometry x="410" y="50" width="120" height="60" as="geometry" />
        </mxCell>
        <mxCell id="pKeI2L3LIv_6qHk-37yW-14" style="edgeStyle=orthogonalEdgeStyle;rounded=0;orthogonalLoop=1;jettySize=auto;html=1;exitX=1;exitY=0.5;exitDx=0;exitDy=0;entryX=0;entryY=0.5;entryDx=0;entryDy=0;" edge="1" parent="pKeI2L3LIv_6qHk-37yW-1" source="pKeI2L3LIv_6qHk-37yW-6" target="pKeI2L3LIv_6qHk-37yW-5">
          <mxGeometry relative="1" as="geometry" />
        </mxCell>
        <mxCell id="pKeI2L3LIv_6qHk-37yW-6" value="client&amp;nbsp; request pickup for claim document" style="rounded=1;whiteSpace=wrap;html=1;" vertex="1" parent="pKeI2L3LIv_6qHk-37yW-1">
          <mxGeometry x="190" y="50" width="120" height="60" as="geometry" />
        </mxCell>
        <mxCell id="pKeI2L3LIv_6qHk-37yW-7" value="Howden receives the document" style="rounded=1;whiteSpace=wrap;html=1;" vertex="1" parent="pKeI2L3LIv_6qHk-37yW-1">
          <mxGeometry x="410" y="127" width="120" height="60" as="geometry" />
        </mxCell>
        <mxCell id="pKeI2L3LIv_6qHk-37yW-12" value="" style="edgeStyle=orthogonalEdgeStyle;rounded=0;orthogonalLoop=1;jettySize=auto;html=1;" edge="1" parent="pKeI2L3LIv_6qHk-37yW-1" source="pKeI2L3LIv_6qHk-37yW-8" target="pKeI2L3LIv_6qHk-37yW-11">
          <mxGeometry relative="1" as="geometry" />
        </mxCell>
        <mxCell id="pKeI2L3LIv_6qHk-37yW-8" value="1" style="ellipse;whiteSpace=wrap;html=1;aspect=fixed;" vertex="1" parent="pKeI2L3LIv_6qHk-37yW-1">
          <mxGeometry x="130" y="40" width="30" height="30" as="geometry" />
        </mxCell>
        <mxCell id="pKeI2L3LIv_6qHk-37yW-19" style="edgeStyle=orthogonalEdgeStyle;rounded=0;orthogonalLoop=1;jettySize=auto;html=1;exitX=0.5;exitY=1;exitDx=0;exitDy=0;" edge="1" parent="pKeI2L3LIv_6qHk-37yW-1" source="pKeI2L3LIv_6qHk-37yW-20">
          <mxGeometry relative="1" as="geometry">
            <mxPoint x="145" y="370" as="targetPoint" />
          </mxGeometry>
        </mxCell>
        <mxCell id="pKeI2L3LIv_6qHk-37yW-11" value="2" style="ellipse;whiteSpace=wrap;html=1;aspect=fixed;" vertex="1" parent="pKeI2L3LIv_6qHk-37yW-1">
          <mxGeometry x="130" y="190" width="30" height="30" as="geometry" />
        </mxCell>
        <mxCell id="pKeI2L3LIv_6qHk-37yW-13" value="or" style="text;html=1;strokeColor=none;fillColor=none;align=center;verticalAlign=middle;whiteSpace=wrap;rounded=0;" vertex="1" parent="pKeI2L3LIv_6qHk-37yW-1">
          <mxGeometry x="160" y="110" width="40" height="20" as="geometry" />
        </mxCell>
        <mxCell id="pKeI2L3LIv_6qHk-37yW-23" style="edgeStyle=orthogonalEdgeStyle;rounded=0;orthogonalLoop=1;jettySize=auto;html=1;exitX=1;exitY=0.5;exitDx=0;exitDy=0;entryX=0;entryY=0.5;entryDx=0;entryDy=0;" edge="1" parent="pKeI2L3LIv_6qHk-37yW-1" source="pKeI2L3LIv_6qHk-37yW-17" target="pKeI2L3LIv_6qHk-37yW-18">
          <mxGeometry relative="1" as="geometry" />
        </mxCell>
        <mxCell id="pKeI2L3LIv_6qHk-37yW-17" value="Howden sends email to client" style="rounded=1;whiteSpace=wrap;html=1;" vertex="1" parent="pKeI2L3LIv_6qHk-37yW-1">
          <mxGeometry x="190" y="226" width="120" height="60" as="geometry" />
        </mxCell>
        <mxCell id="pKeI2L3LIv_6qHk-37yW-18" value="Client Receives email" style="rounded=1;whiteSpace=wrap;html=1;" vertex="1" parent="pKeI2L3LIv_6qHk-37yW-1">
          <mxGeometry x="410" y="226" width="120" height="60" as="geometry" />
        </mxCell>
        <mxCell id="pKeI2L3LIv_6qHk-37yW-20" value="3" style="ellipse;whiteSpace=wrap;html=1;aspect=fixed;" vertex="1" parent="pKeI2L3LIv_6qHk-37yW-1">
          <mxGeometry x="130" y="290" width="30" height="30" as="geometry" />
        </mxCell>
        <mxCell id="pKeI2L3LIv_6qHk-37yW-21" style="edgeStyle=orthogonalEdgeStyle;rounded=0;orthogonalLoop=1;jettySize=auto;html=1;exitX=0.5;exitY=1;exitDx=0;exitDy=0;" edge="1" parent="pKeI2L3LIv_6qHk-37yW-1" source="pKeI2L3LIv_6qHk-37yW-11" target="pKeI2L3LIv_6qHk-37yW-20">
          <mxGeometry relative="1" as="geometry">
            <mxPoint x="145" y="370" as="targetPoint" />
            <mxPoint x="145" y="260" as="sourcePoint" />
          </mxGeometry>
        </mxCell>
        <mxCell id="pKeI2L3LIv_6qHk-37yW-25" style="edgeStyle=orthogonalEdgeStyle;rounded=0;orthogonalLoop=1;jettySize=auto;html=1;entryX=0;entryY=0.5;entryDx=0;entryDy=0;" edge="1" parent="pKeI2L3LIv_6qHk-37yW-1" source="pKeI2L3LIv_6qHk-37yW-22" target="pKeI2L3LIv_6qHk-37yW-24">
          <mxGeometry relative="1" as="geometry" />
        </mxCell>
        <mxCell id="pKeI2L3LIv_6qHk-37yW-22" value="Howden perform basic screening" style="rounded=1;whiteSpace=wrap;html=1;" vertex="1" parent="pKeI2L3LIv_6qHk-37yW-1">
          <mxGeometry x="190" y="309" width="110" height="60" as="geometry" />
        </mxCell>
        <mxCell id="pKeI2L3LIv_6qHk-37yW-24" value="Howden manually encode to Claims Monitoring File Excel file" style="rounded=1;whiteSpace=wrap;html=1;" vertex="1" parent="pKeI2L3LIv_6qHk-37yW-1">
          <mxGeometry x="410" y="309" width="120" height="60" as="geometry" />
        </mxCell>
        <mxCell id="pKeI2L3LIv_6qHk-37yW-34" value="" style="edgeStyle=orthogonalEdgeStyle;rounded=0;orthogonalLoop=1;jettySize=auto;html=1;" edge="1" parent="pKeI2L3LIv_6qHk-37yW-1" source="pKeI2L3LIv_6qHk-37yW-26" target="pKeI2L3LIv_6qHk-37yW-33">
          <mxGeometry relative="1" as="geometry" />
        </mxCell>
        <mxCell id="pKeI2L3LIv_6qHk-37yW-26" value="4" style="ellipse;whiteSpace=wrap;html=1;aspect=fixed;" vertex="1" parent="pKeI2L3LIv_6qHk-37yW-1">
          <mxGeometry x="130" y="370" width="30" height="30" as="geometry" />
        </mxCell>
        <mxCell id="pKeI2L3LIv_6qHk-37yW-39" value="" style="edgeStyle=orthogonalEdgeStyle;rounded=0;orthogonalLoop=1;jettySize=auto;html=1;" edge="1" parent="pKeI2L3LIv_6qHk-37yW-1" source="pKeI2L3LIv_6qHk-37yW-33" target="pKeI2L3LIv_6qHk-37yW-38">
          <mxGeometry relative="1" as="geometry" />
        </mxCell>
        <mxCell id="pKeI2L3LIv_6qHk-37yW-33" value="5" style="ellipse;whiteSpace=wrap;html=1;aspect=fixed;" vertex="1" parent="pKeI2L3LIv_6qHk-37yW-1">
          <mxGeometry x="130" y="480" width="30" height="30" as="geometry" />
        </mxCell>
        <mxCell id="pKeI2L3LIv_6qHk-37yW-44" value="" style="edgeStyle=orthogonalEdgeStyle;rounded=0;orthogonalLoop=1;jettySize=auto;html=1;" edge="1" parent="pKeI2L3LIv_6qHk-37yW-1" source="pKeI2L3LIv_6qHk-37yW-38" target="pKeI2L3LIv_6qHk-37yW-43">
          <mxGeometry relative="1" as="geometry" />
        </mxCell>
        <mxCell id="pKeI2L3LIv_6qHk-37yW-38" value="6" style="ellipse;whiteSpace=wrap;html=1;aspect=fixed;" vertex="1" parent="pKeI2L3LIv_6qHk-37yW-1">
          <mxGeometry x="130" y="590" width="30" height="30" as="geometry" />
        </mxCell>
        <mxCell id="pKeI2L3LIv_6qHk-37yW-48" value="" style="edgeStyle=orthogonalEdgeStyle;rounded=0;orthogonalLoop=1;jettySize=auto;html=1;" edge="1" parent="pKeI2L3LIv_6qHk-37yW-1" source="pKeI2L3LIv_6qHk-37yW-43" target="pKeI2L3LIv_6qHk-37yW-47">
          <mxGeometry relative="1" as="geometry" />
        </mxCell>
        <mxCell id="pKeI2L3LIv_6qHk-37yW-43" value="7" style="ellipse;whiteSpace=wrap;html=1;aspect=fixed;" vertex="1" parent="pKeI2L3LIv_6qHk-37yW-1">
          <mxGeometry x="130" y="700" width="30" height="30" as="geometry" />
        </mxCell>
        <mxCell id="pKeI2L3LIv_6qHk-37yW-59" value="" style="edgeStyle=orthogonalEdgeStyle;rounded=0;orthogonalLoop=1;jettySize=auto;html=1;" edge="1" parent="pKeI2L3LIv_6qHk-37yW-1" source="pKeI2L3LIv_6qHk-37yW-47" target="pKeI2L3LIv_6qHk-37yW-58">
          <mxGeometry relative="1" as="geometry" />
        </mxCell>
        <mxCell id="pKeI2L3LIv_6qHk-37yW-47" value="8" style="ellipse;whiteSpace=wrap;html=1;aspect=fixed;" vertex="1" parent="pKeI2L3LIv_6qHk-37yW-1">
          <mxGeometry x="130" y="810" width="30" height="30" as="geometry" />
        </mxCell>
        <mxCell id="pKeI2L3LIv_6qHk-37yW-58" value="9" style="ellipse;whiteSpace=wrap;html=1;aspect=fixed;" vertex="1" parent="pKeI2L3LIv_6qHk-37yW-1">
          <mxGeometry x="130" y="990" width="30" height="30" as="geometry" />
        </mxCell>
        <mxCell id="pKeI2L3LIv_6qHk-37yW-28" value="Howden Photocopy document then file the photocopy" style="rounded=1;whiteSpace=wrap;html=1;" vertex="1" parent="pKeI2L3LIv_6qHk-37yW-1">
          <mxGeometry x="195" y="400" width="110" height="60" as="geometry" />
        </mxCell>
        <mxCell id="pKeI2L3LIv_6qHk-37yW-37" style="edgeStyle=orthogonalEdgeStyle;rounded=0;orthogonalLoop=1;jettySize=auto;html=1;exitX=1;exitY=0.5;exitDx=0;exitDy=0;entryX=-0.074;entryY=0.501;entryDx=0;entryDy=0;entryPerimeter=0;" edge="1" parent="pKeI2L3LIv_6qHk-37yW-1" source="pKeI2L3LIv_6qHk-37yW-35" target="pKeI2L3LIv_6qHk-37yW-36">
          <mxGeometry relative="1" as="geometry" />
        </mxCell>
        <mxCell id="pKeI2L3LIv_6qHk-37yW-35" value="Howden Send the hardcopy / original copy to Insurance company" style="rounded=1;whiteSpace=wrap;html=1;" vertex="1" parent="pKeI2L3LIv_6qHk-37yW-1">
          <mxGeometry x="195" y="510" width="110" height="60" as="geometry" />
        </mxCell>
        <mxCell id="pKeI2L3LIv_6qHk-37yW-36" value="Howden Send the hardcopy / original copy to Insurance company" style="rounded=1;whiteSpace=wrap;html=1;" vertex="1" parent="pKeI2L3LIv_6qHk-37yW-1">
          <mxGeometry x="400" y="510" width="110" height="60" as="geometry" />
        </mxCell>
        <mxCell id="pKeI2L3LIv_6qHk-37yW-42" value="" style="edgeStyle=orthogonalEdgeStyle;rounded=0;orthogonalLoop=1;jettySize=auto;html=1;" edge="1" parent="pKeI2L3LIv_6qHk-37yW-1" source="pKeI2L3LIv_6qHk-37yW-40" target="pKeI2L3LIv_6qHk-37yW-41">
          <mxGeometry relative="1" as="geometry" />
        </mxCell>
        <mxCell id="pKeI2L3LIv_6qHk-37yW-40" value="Insurance company inform Howden if lacking requirments" style="rounded=1;whiteSpace=wrap;html=1;" vertex="1" parent="pKeI2L3LIv_6qHk-37yW-1">
          <mxGeometry x="200" y="620" width="110" height="60" as="geometry" />
        </mxCell>
        <mxCell id="pKeI2L3LIv_6qHk-37yW-41" value="Howden informs member about the lack of requirments" style="rounded=1;whiteSpace=wrap;html=1;" vertex="1" parent="pKeI2L3LIv_6qHk-37yW-1">
          <mxGeometry x="390" y="620" width="110" height="60" as="geometry" />
        </mxCell>
        <mxCell id="pKeI2L3LIv_6qHk-37yW-45" value="Howden Monitor Insurance company to member" style="rounded=1;whiteSpace=wrap;html=1;" vertex="1" parent="pKeI2L3LIv_6qHk-37yW-1">
          <mxGeometry x="195" y="720" width="110" height="60" as="geometry" />
        </mxCell>
        <mxCell id="pKeI2L3LIv_6qHk-37yW-51" value="" style="edgeStyle=orthogonalEdgeStyle;rounded=0;orthogonalLoop=1;jettySize=auto;html=1;" edge="1" parent="pKeI2L3LIv_6qHk-37yW-1" source="pKeI2L3LIv_6qHk-37yW-49" target="pKeI2L3LIv_6qHk-37yW-50">
          <mxGeometry relative="1" as="geometry" />
        </mxCell>
        <mxCell id="pKeI2L3LIv_6qHk-37yW-49" value="Insurance company sends paycheck to member" style="rounded=1;whiteSpace=wrap;html=1;" vertex="1" parent="pKeI2L3LIv_6qHk-37yW-1">
          <mxGeometry x="195" y="830" width="110" height="60" as="geometry" />
        </mxCell>
        <mxCell id="pKeI2L3LIv_6qHk-37yW-50" value="Member receives paycheck from insurance company" style="rounded=1;whiteSpace=wrap;html=1;" vertex="1" parent="pKeI2L3LIv_6qHk-37yW-1">
          <mxGeometry x="385" y="830" width="110" height="60" as="geometry" />
        </mxCell>
        <mxCell id="pKeI2L3LIv_6qHk-37yW-52" value="or" style="text;html=1;align=center;verticalAlign=middle;resizable=0;points=[];autosize=1;" vertex="1" parent="pKeI2L3LIv_6qHk-37yW-1">
          <mxGeometry x="173" y="891" width="30" height="20" as="geometry" />
        </mxCell>
        <mxCell id="pKeI2L3LIv_6qHk-37yW-55" value="" style="edgeStyle=orthogonalEdgeStyle;rounded=0;orthogonalLoop=1;jettySize=auto;html=1;" edge="1" parent="pKeI2L3LIv_6qHk-37yW-1" source="pKeI2L3LIv_6qHk-37yW-53" target="pKeI2L3LIv_6qHk-37yW-54">
          <mxGeometry relative="1" as="geometry" />
        </mxCell>
        <mxCell id="pKeI2L3LIv_6qHk-37yW-53" value="Insurance company sends paycheck Howden" style="rounded=1;whiteSpace=wrap;html=1;" vertex="1" parent="pKeI2L3LIv_6qHk-37yW-1">
          <mxGeometry x="200" y="920" width="110" height="60" as="geometry" />
        </mxCell>
        <mxCell id="pKeI2L3LIv_6qHk-37yW-57" value="" style="edgeStyle=orthogonalEdgeStyle;rounded=0;orthogonalLoop=1;jettySize=auto;html=1;" edge="1" parent="pKeI2L3LIv_6qHk-37yW-1" source="pKeI2L3LIv_6qHk-37yW-54" target="pKeI2L3LIv_6qHk-37yW-56">
          <mxGeometry relative="1" as="geometry" />
        </mxCell>
        <mxCell id="pKeI2L3LIv_6qHk-37yW-54" value="Howden sends paycheck to Member" style="rounded=1;whiteSpace=wrap;html=1;" vertex="1" parent="pKeI2L3LIv_6qHk-37yW-1">
          <mxGeometry x="390" y="920" width="110" height="60" as="geometry" />
        </mxCell>
        <mxCell id="pKeI2L3LIv_6qHk-37yW-56" value="Member Receive paycheck&amp;nbsp;" style="rounded=1;whiteSpace=wrap;html=1;" vertex="1" parent="pKeI2L3LIv_6qHk-37yW-1">
          <mxGeometry x="580" y="920" width="110" height="60" as="geometry" />
        </mxCell>
        <mxCell id="pKeI2L3LIv_6qHk-37yW-60" value="Howden update monitoring file indicate Members paycheck was already release&amp;nbsp;" style="rounded=1;whiteSpace=wrap;html=1;" vertex="1" parent="pKeI2L3LIv_6qHk-37yW-1">
          <mxGeometry x="195" y="1020" width="125" height="60" as="geometry" />
        </mxCell>
      </root>
    </mxGraphModel>
  </diagram>
  <diagram id="qBWn2WrP6FYpRy157Uqe" name="Page-4">
    <mxGraphModel dx="1014" dy="567" grid="0" gridSize="10" guides="1" tooltips="1" connect="1" arrows="1" fold="1" page="1" pageScale="1" pageWidth="850" pageHeight="1100" math="0" shadow="0">
      <root>
        <mxCell id="e4CYx0ICjst6BmEIsJ5u-0" />
        <mxCell id="e4CYx0ICjst6BmEIsJ5u-1" parent="e4CYx0ICjst6BmEIsJ5u-0" />
        <mxCell id="e4CYx0ICjst6BmEIsJ5u-3" value="Howden Insurance Monitoring System" style="ellipse;whiteSpace=wrap;html=1;" vertex="1" parent="e4CYx0ICjst6BmEIsJ5u-1">
          <mxGeometry x="370" y="190" width="120" height="80" as="geometry" />
        </mxCell>
        <mxCell id="e4CYx0ICjst6BmEIsJ5u-6" value="add Insurance company" style="ellipse;whiteSpace=wrap;html=1;" vertex="1" parent="e4CYx0ICjst6BmEIsJ5u-1">
          <mxGeometry x="190" y="80" width="120" height="80" as="geometry" />
        </mxCell>
        <mxCell id="e4CYx0ICjst6BmEIsJ5u-7" value="Enroll Member" style="ellipse;whiteSpace=wrap;html=1;" vertex="1" parent="e4CYx0ICjst6BmEIsJ5u-1">
          <mxGeometry x="140" y="200" width="120" height="80" as="geometry" />
        </mxCell>
        <mxCell id="e4CYx0ICjst6BmEIsJ5u-8" value="Process Claims" style="ellipse;whiteSpace=wrap;html=1;" vertex="1" parent="e4CYx0ICjst6BmEIsJ5u-1">
          <mxGeometry x="540" y="80" width="120" height="80" as="geometry" />
        </mxCell>
        <mxCell id="e4CYx0ICjst6BmEIsJ5u-9" value="Member Monitoring" style="ellipse;whiteSpace=wrap;html=1;" vertex="1" parent="e4CYx0ICjst6BmEIsJ5u-1">
          <mxGeometry x="600" y="190" width="120" height="80" as="geometry" />
        </mxCell>
        <mxCell id="e4CYx0ICjst6BmEIsJ5u-10" value="&lt;span style=&quot;font-size: 12.0pt ; line-height: 107% ; font-family: &amp;#34;arial&amp;#34; , &amp;#34;sans-serif&amp;#34; ; color: #222222&quot;&gt;concerns&lt;/span&gt;" style="ellipse;whiteSpace=wrap;html=1;" vertex="1" parent="e4CYx0ICjst6BmEIsJ5u-1">
          <mxGeometry x="558" y="305" width="120" height="80" as="geometry" />
        </mxCell>
        <mxCell id="e4CYx0ICjst6BmEIsJ5u-11" value="Employee Registration" style="ellipse;whiteSpace=wrap;html=1;" vertex="1" parent="e4CYx0ICjst6BmEIsJ5u-1">
          <mxGeometry x="370" y="30" width="120" height="80" as="geometry" />
        </mxCell>
        <mxCell id="e4CYx0ICjst6BmEIsJ5u-12" value="&lt;span style=&quot;font-size: 12.0pt ; line-height: 107% ; font-family: &amp;#34;arial&amp;#34; , &amp;#34;sans-serif&amp;#34; ; color: #222222&quot;&gt;Reporting&lt;/span&gt;" style="ellipse;whiteSpace=wrap;html=1;" vertex="1" parent="e4CYx0ICjst6BmEIsJ5u-1">
          <mxGeometry x="215" y="314" width="120" height="80" as="geometry" />
        </mxCell>
        <mxCell id="e4CYx0ICjst6BmEIsJ5u-15" value="" style="shape=flexArrow;endArrow=classic;html=1;exitX=1.016;exitY=0.78;exitDx=0;exitDy=0;exitPerimeter=0;" edge="1" parent="e4CYx0ICjst6BmEIsJ5u-1" source="e4CYx0ICjst6BmEIsJ5u-6" target="e4CYx0ICjst6BmEIsJ5u-3">
          <mxGeometry width="50" height="50" relative="1" as="geometry">
            <mxPoint x="320" y="180" as="sourcePoint" />
            <mxPoint x="370" y="130" as="targetPoint" />
          </mxGeometry>
        </mxCell>
        <mxCell id="e4CYx0ICjst6BmEIsJ5u-16" value="" style="shape=flexArrow;endArrow=classic;html=1;entryX=1;entryY=0;entryDx=0;entryDy=0;" edge="1" parent="e4CYx0ICjst6BmEIsJ5u-1" target="e4CYx0ICjst6BmEIsJ5u-12">
          <mxGeometry width="50" height="50" relative="1" as="geometry">
            <mxPoint x="390" y="270" as="sourcePoint" />
            <mxPoint x="360" y="330" as="targetPoint" />
          </mxGeometry>
        </mxCell>
        <mxCell id="e4CYx0ICjst6BmEIsJ5u-19" value="" style="shape=flexArrow;endArrow=classic;html=1;exitX=0.168;exitY=0.008;exitDx=0;exitDy=0;exitPerimeter=0;entryX=0.839;entryY=0.964;entryDx=0;entryDy=0;entryPerimeter=0;" edge="1" parent="e4CYx0ICjst6BmEIsJ5u-1" source="e4CYx0ICjst6BmEIsJ5u-10" target="e4CYx0ICjst6BmEIsJ5u-3">
          <mxGeometry width="50" height="50" relative="1" as="geometry">
            <mxPoint x="479.9999999999998" y="270" as="sourcePoint" />
            <mxPoint x="449.9999999999998" y="330" as="targetPoint" />
          </mxGeometry>
        </mxCell>
        <mxCell id="e4CYx0ICjst6BmEIsJ5u-20" value="" style="shape=flexArrow;endArrow=classic;html=1;" edge="1" parent="e4CYx0ICjst6BmEIsJ5u-1">
          <mxGeometry width="50" height="50" relative="1" as="geometry">
            <mxPoint x="270" y="240" as="sourcePoint" />
            <mxPoint x="360" y="240" as="targetPoint" />
          </mxGeometry>
        </mxCell>
        <mxCell id="e4CYx0ICjst6BmEIsJ5u-21" value="" style="shape=flexArrow;endArrow=classic;html=1;exitX=1;exitY=0.5;exitDx=0;exitDy=0;entryX=0;entryY=0.5;entryDx=0;entryDy=0;" edge="1" parent="e4CYx0ICjst6BmEIsJ5u-1" source="e4CYx0ICjst6BmEIsJ5u-3" target="e4CYx0ICjst6BmEIsJ5u-9">
          <mxGeometry width="50" height="50" relative="1" as="geometry">
            <mxPoint x="540" y="220" as="sourcePoint" />
            <mxPoint x="580" y="170" as="targetPoint" />
          </mxGeometry>
        </mxCell>
        <mxCell id="e4CYx0ICjst6BmEIsJ5u-22" value="" style="shape=flexArrow;endArrow=classic;html=1;entryX=0.5;entryY=0;entryDx=0;entryDy=0;" edge="1" parent="e4CYx0ICjst6BmEIsJ5u-1" target="e4CYx0ICjst6BmEIsJ5u-3">
          <mxGeometry width="50" height="50" relative="1" as="geometry">
            <mxPoint x="430" y="120" as="sourcePoint" />
            <mxPoint x="500" y="95" as="targetPoint" />
          </mxGeometry>
        </mxCell>
        <mxCell id="e4CYx0ICjst6BmEIsJ5u-23" value="" style="shape=flexArrow;endArrow=classic;html=1;entryX=0.918;entryY=0.155;entryDx=0;entryDy=0;entryPerimeter=0;" edge="1" parent="e4CYx0ICjst6BmEIsJ5u-1" source="e4CYx0ICjst6BmEIsJ5u-8" target="e4CYx0ICjst6BmEIsJ5u-3">
          <mxGeometry width="50" height="50" relative="1" as="geometry">
            <mxPoint x="500" y="120" as="sourcePoint" />
            <mxPoint x="540" y="150" as="targetPoint" />
          </mxGeometry>
        </mxCell>
        <mxCell id="e4CYx0ICjst6BmEIsJ5u-24" value="&lt;span style=&quot;font-size: 12.0pt ; line-height: 107% ; font-family: &amp;#34;arial&amp;#34; , &amp;#34;sans-serif&amp;#34; ; color: #222222&quot;&gt;Employee Monitoring&lt;/span&gt;" style="ellipse;whiteSpace=wrap;html=1;" vertex="1" parent="e4CYx0ICjst6BmEIsJ5u-1">
          <mxGeometry x="387" y="350" width="120" height="80" as="geometry" />
        </mxCell>
        <mxCell id="e4CYx0ICjst6BmEIsJ5u-25" value="" style="shape=flexArrow;endArrow=classic;html=1;" edge="1" parent="e4CYx0ICjst6BmEIsJ5u-1">
          <mxGeometry width="50" height="50" relative="1" as="geometry">
            <mxPoint x="432.56999999999977" y="276" as="sourcePoint" />
            <mxPoint x="441" y="344" as="targetPoint" />
          </mxGeometry>
        </mxCell>
      </root>
    </mxGraphModel>
  </diagram>
</mxfile>
